<?xml version="1.0" encoding="utf-8"?>
<!-- Generator: Adobe Illustrator 25.4.1, SVG Export Plug-In . SVG Version: 6.00 Build 0)  -->
<svg version="1.1" id="Layer_1" xmlns="http://www.w3.org/2000/svg" xmlns:xlink="http://www.w3.org/1999/xlink" x="0px" y="0px"
	 viewBox="0 0 145.6 46.3" style="enable-background:new 0 0 145.6 46.3;" xml:space="preserve">
<style type="text/css">
	.st0{fill:#1D1D1B;}
	.st1{clip-path:url(#SVGID_00000152265457417836097410000015014960464477337241_);fill:#1D1D1B;}
	.st2{clip-path:url(#SVGID_00000152265457417836097410000015014960464477337241_);fill:none;stroke:#82754A;}
</style>
<polygon class="st0" points="14.2,1.2 14.2,12.4 5.5,1.2 0,1.2 0,22.4 5.8,22.4 5.8,10.8 14.8,22.4 20,22.4 20,1.2 "/>
<g>
	<defs>
		<rect id="SVGID_1_" y="0" width="145.6" height="46.3"/>
	</defs>
	<clipPath id="SVGID_00000072250056958216432010000016774340892370198160_">
		<use xlink:href="#SVGID_1_"  style="overflow:visible;"/>
	</clipPath>
	<path style="clip-path:url(#SVGID_00000072250056958216432010000016774340892370198160_);fill:#1D1D1B;" d="M32.4,11.8
		c2.1,0,3.4-1.1,3.4-2.7V9c0-1.8-1.3-2.8-3.4-2.8h-2.7v5.6H32.4z M23.7,1.2h9.1c5.3,0,8.8,2.8,8.8,7.4v0.1c0,5-3.8,7.6-9.1,7.6h-2.9
		v6h-5.9V1.2z"/>
	<polygon style="clip-path:url(#SVGID_00000072250056958216432010000016774340892370198160_);fill:#1D1D1B;" points="0.3,24.7 
		6.1,24.7 6.1,32.6 13.7,32.6 13.7,24.7 19.5,24.7 19.5,45.9 13.7,45.9 13.7,37.8 6.1,37.8 6.1,45.9 0.3,45.9 	"/>
	<polygon style="clip-path:url(#SVGID_00000072250056958216432010000016774340892370198160_);fill:#1D1D1B;" points="28.4,29.9 
		22.1,29.9 22.1,24.7 40.7,24.7 40.7,29.9 34.3,29.9 34.3,45.9 28.4,45.9 	"/>
	<polygon style="clip-path:url(#SVGID_00000072250056958216432010000016774340892370198160_);fill:#1D1D1B;" points="66.5,1.7 
		67.9,1.7 72.5,7.6 72.5,1.7 74,1.7 74,10.3 72.7,10.3 68,4.2 68,10.3 66.5,10.3 	"/>
	<path style="clip-path:url(#SVGID_00000072250056958216432010000016774340892370198160_);fill:#1D1D1B;" d="M81.3,6.8l-1.5-3.4
		l-1.5,3.4H81.3z M79.1,1.6h1.4l3.8,8.6h-1.6l-0.9-2.1h-4.1l-0.9,2.1h-1.5L79.1,1.6z"/>
	<polygon style="clip-path:url(#SVGID_00000072250056958216432010000016774340892370198160_);fill:#1D1D1B;" points="86.6,3.1 
		83.9,3.1 83.9,1.7 90.9,1.7 90.9,3.1 88.1,3.1 88.1,10.3 86.6,10.3 	"/>
	
		<rect x="92.4" y="1.7" style="clip-path:url(#SVGID_00000072250056958216432010000016774340892370198160_);fill:#1D1D1B;" width="1.5" height="8.6"/>
	<path style="clip-path:url(#SVGID_00000072250056958216432010000016774340892370198160_);fill:#1D1D1B;" d="M103.1,6L103.1,6
		c0-1.7-1.2-3.1-2.9-3.1c-1.7,0-2.9,1.4-2.9,3v0c0,1.7,1.2,3,2.9,3C101.9,9,103.1,7.7,103.1,6 M95.7,6L95.7,6c0-2.4,1.9-4.5,4.5-4.5
		c2.6,0,4.5,2,4.5,4.4v0c0,2.4-1.9,4.4-4.5,4.4S95.7,8.4,95.7,6"/>
	<polygon style="clip-path:url(#SVGID_00000072250056958216432010000016774340892370198160_);fill:#1D1D1B;" points="106.4,1.7 
		107.8,1.7 112.4,7.6 112.4,1.7 113.9,1.7 113.9,10.3 112.6,10.3 107.9,4.2 107.9,10.3 106.4,10.3 	"/>
	<path style="clip-path:url(#SVGID_00000072250056958216432010000016774340892370198160_);fill:#1D1D1B;" d="M121.1,6.8l-1.5-3.4
		l-1.5,3.4H121.1z M119,1.6h1.4l3.8,8.6h-1.6l-0.9-2.1h-4.1l-0.9,2.1h-1.5L119,1.6z"/>
	<polygon style="clip-path:url(#SVGID_00000072250056958216432010000016774340892370198160_);fill:#1D1D1B;" points="125.5,1.7 
		127,1.7 127,8.9 131.5,8.9 131.5,10.3 125.5,10.3 	"/>
	<path style="clip-path:url(#SVGID_00000072250056958216432010000016774340892370198160_);fill:#1D1D1B;" d="M69.5,17.3
		c1.1,0,1.8-0.6,1.8-1.5v0c0-1-0.7-1.5-1.8-1.5h-1.8v3.1H69.5z M66.2,12.8h3.4c2,0,3.3,1.1,3.3,2.9v0c0,1.9-1.5,2.9-3.4,2.9h-1.7
		v2.8h-1.5V12.8z"/>
	<path style="clip-path:url(#SVGID_00000072250056958216432010000016774340892370198160_);fill:#1D1D1B;" d="M78.6,18l-1.5-3.4
		L75.7,18H78.6z M76.5,12.8h1.4l3.8,8.6h-1.6l-0.9-2.1h-4.1l-0.9,2.1h-1.5L76.5,12.8z"/>
	<path style="clip-path:url(#SVGID_00000072250056958216432010000016774340892370198160_);fill:#1D1D1B;" d="M86.7,17.1
		c1.1,0,1.8-0.6,1.8-1.4v0c0-0.9-0.7-1.4-1.8-1.4h-2.2v2.9H86.7z M83,12.8h3.8c1.1,0,1.9,0.3,2.5,0.9c0.5,0.5,0.7,1.1,0.7,1.8v0
		c0,1.4-0.8,2.3-2,2.6l2.3,3.2h-1.8l-2.1-3h-1.9v3H83V12.8z"/>
	<path style="clip-path:url(#SVGID_00000072250056958216432010000016774340892370198160_);fill:#1D1D1B;" d="M96.9,18l-1.5-3.4
		L94,18H96.9z M94.8,12.8h1.4l3.8,8.6h-1.6l-0.9-2.1h-4.1l-0.9,2.1H91L94.8,12.8z"/>
	<polygon style="clip-path:url(#SVGID_00000072250056958216432010000016774340892370198160_);fill:#1D1D1B;" points="101.3,12.8 
		102.8,12.8 102.8,20 107.3,20 107.3,21.4 101.3,21.4 	"/>
	<polygon style="clip-path:url(#SVGID_00000072250056958216432010000016774340892370198160_);fill:#1D1D1B;" points="109.7,18 
		106.3,12.8 108.1,12.8 110.5,16.6 112.9,12.8 114.6,12.8 111.2,18 111.2,21.4 109.7,21.4 	"/>
	<polygon style="clip-path:url(#SVGID_00000072250056958216432010000016774340892370198160_);fill:#1D1D1B;" points="115.8,12.8 
		117.4,12.8 120,16.9 122.6,12.8 124.2,12.8 124.2,21.4 122.7,21.4 122.7,15.3 120,19.3 120,19.3 117.3,15.3 117.3,21.4 115.8,21.4 
			"/>
	<path style="clip-path:url(#SVGID_00000072250056958216432010000016774340892370198160_);fill:#1D1D1B;" d="M129.6,17.3
		c1.1,0,1.8-0.6,1.8-1.5v0c0-1-0.7-1.5-1.8-1.5h-1.8v3.1H129.6z M126.3,12.8h3.4c2,0,3.3,1.1,3.3,2.9v0c0,1.9-1.5,2.9-3.4,2.9h-1.7
		v2.8h-1.5V12.8z"/>
	
		<rect x="134.5" y="12.8" style="clip-path:url(#SVGID_00000072250056958216432010000016774340892370198160_);fill:#1D1D1B;" width="1.5" height="8.6"/>
	<path style="clip-path:url(#SVGID_00000072250056958216432010000016774340892370198160_);fill:#1D1D1B;" d="M137.8,17.1L137.8,17.1
		c0-2.5,1.8-4.5,4.4-4.5c1.6,0,2.5,0.6,3.4,1.3l-1,1.1c-0.7-0.6-1.4-1.1-2.4-1.1c-1.6,0-2.8,1.3-2.8,3v0c0,1.7,1.2,3.1,2.8,3.1
		c1.1,0,1.7-0.4,2.5-1.1l1,1c-0.9,0.9-1.9,1.5-3.5,1.5C139.6,21.5,137.8,19.6,137.8,17.1"/>
	<polygon style="clip-path:url(#SVGID_00000072250056958216432010000016774340892370198160_);fill:#1D1D1B;" points="66.1,24.8 
		67.6,24.8 67.6,28.4 71.7,28.4 71.7,24.8 73.2,24.8 73.2,33.4 71.7,33.4 71.7,29.8 67.6,29.8 67.6,33.4 66.1,33.4 	"/>
	<polygon style="clip-path:url(#SVGID_00000072250056958216432010000016774340892370198160_);fill:#1D1D1B;" points="75.3,24.8 
		81.6,24.8 81.6,26.2 76.8,26.2 76.8,28.4 81.1,28.4 81.1,29.8 76.8,29.8 76.8,32.1 81.7,32.1 81.7,33.4 75.3,33.4 	"/>
	<path style="clip-path:url(#SVGID_00000072250056958216432010000016774340892370198160_);fill:#1D1D1B;" d="M87.1,29.1
		c1.1,0,1.8-0.6,1.8-1.4v0c0-0.9-0.7-1.4-1.8-1.4h-2.2v2.9H87.1z M83.4,24.8h3.8c1.1,0,1.9,0.3,2.5,0.9c0.5,0.5,0.7,1.1,0.7,1.8v0
		c0,1.4-0.8,2.3-2,2.6l2.3,3.2h-1.8l-2.1-3h-1.9v3h-1.5V24.8z"/>
	
		<rect x="92.2" y="24.8" style="clip-path:url(#SVGID_00000072250056958216432010000016774340892370198160_);fill:#1D1D1B;" width="1.5" height="8.6"/>
	<polygon style="clip-path:url(#SVGID_00000072250056958216432010000016774340892370198160_);fill:#1D1D1B;" points="98,26.2 
		95.3,26.2 95.3,24.8 102.2,24.8 102.2,26.2 99.5,26.2 99.5,33.4 98,33.4 	"/>
	<path style="clip-path:url(#SVGID_00000072250056958216432010000016774340892370198160_);fill:#1D1D1B;" d="M107.8,30l-1.5-3.4
		l-1.5,3.4H107.8z M105.6,24.8h1.4l3.8,8.6h-1.6l-0.9-2.1h-4.1l-0.9,2.1h-1.5L105.6,24.8z"/>
	<path style="clip-path:url(#SVGID_00000072250056958216432010000016774340892370198160_);fill:#1D1D1B;" d="M111.2,29.1L111.2,29.1
		c0-2.4,1.8-4.5,4.4-4.5c1.5,0,2.4,0.4,3.3,1.2l-1,1.1c-0.7-0.6-1.3-0.9-2.4-0.9c-1.6,0-2.8,1.4-2.8,3v0c0,1.8,1.2,3.1,2.9,3.1
		c0.8,0,1.5-0.3,2.1-0.6v-1.6h-2.2v-1.3h3.7v3.6c-0.8,0.7-2.1,1.3-3.6,1.3C113,33.5,111.2,31.6,111.2,29.1"/>
	<polygon style="clip-path:url(#SVGID_00000072250056958216432010000016774340892370198160_);fill:#1D1D1B;" points="121.1,24.8 
		127.5,24.8 127.5,26.2 122.6,26.2 122.6,28.4 126.9,28.4 126.9,29.8 122.6,29.8 122.6,32.1 127.5,32.1 127.5,33.4 121.1,33.4 	"/>
	<polygon style="clip-path:url(#SVGID_00000072250056958216432010000016774340892370198160_);fill:#1D1D1B;" points="68.2,37.7 
		65.5,37.7 65.5,36.3 72.4,36.3 72.4,37.7 69.7,37.7 69.7,44.9 68.2,44.9 	"/>
	<path style="clip-path:url(#SVGID_00000072250056958216432010000016774340892370198160_);fill:#1D1D1B;" d="M77.6,40.6
		c1.1,0,1.8-0.6,1.8-1.4v0c0-0.9-0.7-1.4-1.8-1.4h-2.2v2.9H77.6z M73.9,36.3h3.8c1.1,0,1.9,0.3,2.5,0.9c0.5,0.5,0.7,1.1,0.7,1.8v0
		c0,1.4-0.8,2.3-2,2.6l2.3,3.2h-1.8l-2.1-3h-1.9v3h-1.5V36.3z"/>
	<path style="clip-path:url(#SVGID_00000072250056958216432010000016774340892370198160_);fill:#1D1D1B;" d="M82.5,41.3v-4.9H84v4.9
		c0,1.6,0.8,2.5,2.2,2.5c1.3,0,2.2-0.8,2.2-2.4v-4.9h1.5v4.9c0,2.6-1.4,3.8-3.7,3.8C83.9,45.1,82.5,43.8,82.5,41.3"/>
	<path style="clip-path:url(#SVGID_00000072250056958216432010000016774340892370198160_);fill:#1D1D1B;" d="M91.2,43.7l0.9-1.1
		c0.8,0.7,1.6,1.1,2.7,1.1c0.9,0,1.5-0.4,1.5-1.1v0c0-0.6-0.3-0.9-1.9-1.3c-1.8-0.4-2.9-1-2.9-2.6v0c0-1.5,1.2-2.5,2.9-2.5
		c1.3,0,2.2,0.4,3.1,1.1l-0.8,1.1c-0.8-0.6-1.5-0.9-2.3-0.9c-0.9,0-1.4,0.5-1.4,1v0c0,0.7,0.4,1,2,1.3c1.8,0.4,2.8,1.1,2.8,2.5v0
		c0,1.6-1.3,2.6-3.1,2.6C93.5,45,92.2,44.6,91.2,43.7"/>
	<polygon style="clip-path:url(#SVGID_00000072250056958216432010000016774340892370198160_);fill:#1D1D1B;" points="101.4,37.7 
		98.7,37.7 98.7,36.3 105.7,36.3 105.7,37.7 103,37.7 103,44.9 101.4,44.9 	"/>
	
		<line style="clip-path:url(#SVGID_00000072250056958216432010000016774340892370198160_);fill:none;stroke:#82754A;" x1="55.1" y1="0" x2="55.1" y2="46.3"/>
</g>
</svg>
