<svg id="Layer_1" data-name="Layer 1" xmlns="http://www.w3.org/2000/svg" viewBox="0 0 376.25 375.25"><path d="M188.13,0A188.4,188.4,0,0,0,0,188.13c10.32,249.55,365.93,249.46,376.25,0A188.4,188.4,0,0,0,188.12,0Zm0,350A162.06,162.06,0,0,1,26.25,188.13C35-26.6,341.25-26.6,350,188.13A162,162,0,0,1,188.13,350Z" fill="#fff"/><path d="M188.13,158.12A13.12,13.12,0,0,0,175,171.24v82.34a13.13,13.13,0,0,0,26.25,0V171.24a13.11,13.11,0,0,0-13.12-13.12Z" fill="#fff"/><path d="M178.86,108.68a12,12,0,0,0-1.67,2A15,15,0,0,0,176,113a19,19,0,0,0-.7,2.45,13.12,13.12,0,1,0,3.59-6.74Z" fill="#fff"/></svg>