<?xml version="1.0" encoding="utf-8"?>
<!-- Generator: Adobe Illustrator 25.4.1, SVG Export Plug-In . SVG Version: 6.00 Build 0)  -->
<svg version="1.1" id="Layer_1" xmlns="http://www.w3.org/2000/svg" xmlns:xlink="http://www.w3.org/1999/xlink" x="0px" y="0px"
	 viewBox="0 0 715 857" style="enable-background:new 0 0 715 857;" xml:space="preserve">
<style type="text/css">
	.st0{fill:#020202;}
	.st1{fill:#444444;}
</style>
<rect class="st0" width="715" height="857"/>
<g>
	<path class="st1" d="M77.5,168.5v-49h10.8v49H77.5z"/>
	<path class="st1" d="M134.9,168.5l-23.7-31.1v31.1h-10.6v-49h9.9l23,30.2v-30.2h10.6v49H134.9z"/>
	<path class="st1" d="M166.7,129.2v10.6H190v9.7h-23.4v19h-10.8v-49h37.3v9.7H166.7z"/>
	<path class="st1" d="M249.7,153.8c-1.3,3.1-3.1,5.7-5.4,8c-2.3,2.3-5.1,4.1-8.3,5.5c-3.2,1.3-6.7,2-10.5,2c-3.8,0-7.3-0.7-10.4-2
		c-3.2-1.3-5.9-3.1-8.2-5.4c-2.3-2.3-4.1-4.9-5.4-8c-1.3-3.1-1.9-6.3-1.9-9.8V144c0-3.5,0.7-6.8,2-9.8c1.3-3.1,3.1-5.7,5.4-8
		c2.3-2.3,5.1-4.1,8.3-5.5c3.2-1.3,6.7-2,10.5-2c3.8,0,7.3,0.7,10.4,2c3.2,1.3,5.9,3.1,8.2,5.4c2.3,2.3,4.1,4.9,5.4,8
		c1.3,3.1,1.9,6.3,1.9,9.8v0.1C251.7,147.5,251,150.8,249.7,153.8z M240.4,144c0-2.1-0.4-4.1-1.1-6c-0.7-1.9-1.8-3.5-3.1-4.9
		s-2.9-2.5-4.7-3.3c-1.8-0.8-3.8-1.2-5.9-1.2c-2.2,0-4.2,0.4-6,1.2c-1.8,0.8-3.3,1.9-4.6,3.3c-1.3,1.4-2.3,3-3,4.9
		c-0.7,1.8-1.1,3.8-1.1,5.9v0.1c0,2.1,0.4,4.1,1.1,6c0.7,1.9,1.8,3.5,3.1,4.9s2.9,2.5,4.7,3.3c1.8,0.8,3.8,1.2,6,1.2
		c2.1,0,4.1-0.4,6-1.2c1.8-0.8,3.4-1.9,4.7-3.3c1.3-1.4,2.3-3,3-4.9c0.7-1.8,1.1-3.8,1.1-5.9V144z"/>
	<path class="st1" d="M291,168.5l-10.5-15.7h-8.5v15.7h-10.8v-49h22.4c5.8,0,10.4,1.4,13.6,4.3c3.2,2.8,4.9,6.8,4.9,11.9v0.1
		c0,4-1,7.2-2.9,9.7c-1.9,2.5-4.5,4.3-7.6,5.5l12,17.5H291z M291.3,136.2c0-2.3-0.7-4.1-2.2-5.2c-1.5-1.2-3.6-1.8-6.2-1.8h-10.7
		v14.1H283c2.7,0,4.7-0.6,6.1-1.9c1.4-1.3,2.1-2.9,2.1-5V136.2z"/>
	<path class="st1" d="M350.3,168.5v-32l-13.8,20.9h-0.3l-13.6-20.7v31.8h-10.6v-49h11.6l12.9,20.7l12.9-20.7h11.6v49H350.3z"/>
	<path class="st1" d="M409.1,168.5l-4.5-11h-20.7l-4.5,11h-11l21-49.4h9.9l21,49.4H409.1z M394.3,132.1l-6.5,15.9h13L394.3,132.1z"
		/>
	<path class="st1" d="M450.2,129.4v39.1h-10.8v-39.1h-14.9v-9.9h40.6v9.9H450.2z"/>
	<path class="st1" d="M473.8,168.5v-49h10.8v49H473.8z"/>
	<path class="st1" d="M544.8,153.8c-1.3,3.1-3.1,5.7-5.4,8c-2.3,2.3-5.1,4.1-8.3,5.5c-3.2,1.3-6.7,2-10.5,2c-3.8,0-7.3-0.7-10.4-2
		c-3.2-1.3-5.9-3.1-8.2-5.4c-2.3-2.3-4.1-4.9-5.4-8c-1.3-3.1-1.9-6.3-1.9-9.8V144c0-3.5,0.7-6.8,2-9.8c1.3-3.1,3.1-5.7,5.4-8
		c2.3-2.3,5.1-4.1,8.3-5.5c3.2-1.3,6.7-2,10.5-2c3.8,0,7.3,0.7,10.4,2c3.2,1.3,5.9,3.1,8.2,5.4c2.3,2.3,4.1,4.9,5.4,8
		c1.3,3.1,1.9,6.3,1.9,9.8v0.1C546.8,147.5,546.1,150.8,544.8,153.8z M535.5,144c0-2.1-0.4-4.1-1.1-6c-0.7-1.9-1.8-3.5-3.1-4.9
		c-1.3-1.4-2.9-2.5-4.7-3.3c-1.8-0.8-3.8-1.2-6-1.2c-2.2,0-4.2,0.4-6,1.2c-1.8,0.8-3.3,1.9-4.6,3.3c-1.3,1.4-2.3,3-3,4.9
		c-0.7,1.8-1.1,3.8-1.1,5.9v0.1c0,2.1,0.4,4.1,1.1,6c0.7,1.9,1.8,3.5,3.1,4.9c1.3,1.4,2.9,2.5,4.7,3.3c1.8,0.8,3.8,1.2,6,1.2
		c2.1,0,4.1-0.4,5.9-1.2c1.8-0.8,3.4-1.9,4.7-3.3c1.3-1.4,2.3-3,3-4.9c0.7-1.8,1.1-3.8,1.1-5.9V144z"/>
	<path class="st1" d="M590.7,168.5L567,137.3v31.1h-10.6v-49h9.9l23,30.2v-30.2h10.6v49H590.7z"/>
</g>
<g>
	<rect x="71.2" y="257" class="st1" width="522" height="12"/>
	<rect x="71.2" y="307.6" class="st1" width="482" height="12"/>
	<rect x="71.2" y="358.2" class="st1" width="512" height="12"/>
	<rect x="71.2" y="408.9" class="st1" width="472" height="12"/>
	<rect x="71.2" y="459.5" class="st1" width="512" height="12"/>
	<rect x="71.2" y="510.1" class="st1" width="452" height="12"/>
	<rect x="71.2" y="560.8" class="st1" width="382" height="12"/>
	<rect x="71.2" y="651.4" class="st1" width="492" height="12"/>
	<rect x="71.2" y="702" class="st1" width="522" height="12"/>
</g>
</svg>
