<?xml version="1.0" encoding="utf-8"?>
<!-- Generator: Adobe Illustrator 25.4.1, SVG Export Plug-In . SVG Version: 6.00 Build 0)  -->
<svg version="1.1" id="Layer_1" xmlns="http://www.w3.org/2000/svg" xmlns:xlink="http://www.w3.org/1999/xlink" x="0px" y="0px"
	 viewBox="0 0 321.4 400.7" style="enable-background:new 0 0 321.4 400.7;" xml:space="preserve">
<style type="text/css">
	.st0{fill:#FFFFFF;}
</style>
<g>
	<path class="st0" d="M313.3,150.6v-3.1v2.5c0,1.9,0,4.4,0.6,6.2C313.3,154.3,313.3,152.4,313.3,150.6z"/>
	<path class="st0" d="M287.2,154.3c-6.8,0-13.1,1.9-18,5c-5.6-11.8-17.4-19.9-31.1-19.9c-6.8,0-13.1,1.9-18,5
		c-5.6-11.8-17.4-19.9-31.1-19.9c-5,0-10.6,1.2-14.9,3.1V34.2c0-19.3-15.6-34.2-34.2-34.2s-34.2,15.6-34.2,34.2v155.5L94.9,168
		c-5-13.1-18-22.4-32.4-22.4c-3.7,0-8.1,0.6-11.8,1.9c-8.7,3.1-15.6,9.3-19.3,18c-3.7,8.1-4.4,17.4-1.2,26.1c0,0,0,0.6,0.6,0.6
		l71.6,151.8c0,0.6,0.6,0.6,0.6,1.2c7.5,11.2,16.2,21.2,26.8,29.9c0.6,0.6,1.2,0.6,1.9,1.2l1.2,1.2c20.5,14.9,44.8,23,70.3,23
		c63.5,0,115.7-49.8,118.2-112.6v-1.2v-5.6V280v-1.2v-3.1l0-87.1C322,169.9,306.4,154.3,287.2,154.3L287.2,154.3z M203.2,381.4
		c-21.2,0-41.1-6.2-57.9-18.7l-1.2-1.2c-1.2-1.2-2.5-1.9-3.7-2.5c-8.1-6.8-14.9-14.3-20.5-23L48.9,185.4c-1.2-3.7-1.2-7.5,0.6-11.2
		c1.9-3.7,4.4-6.2,8.1-7.5c7.5-2.5,16.2,1.2,18.7,8.7c0,0,0,0.6,0.6,0.6l29.2,62.2c1.9,4.4,6.8,6.2,11.2,5.6c4.4-1.2,7.5-5,7.5-9.3
		V34.2c0-8.1,6.8-14.9,14.9-14.9c8.1,0,14.9,6.8,14.9,14.9v124.4c0,5.6,4.4,10,10,10c5.6,0,10-4.4,10-10c0-8.1,6.8-14.9,14.9-14.9
		c8.1,0,14.9,6.8,14.9,14.9v14.9c0,5.6,4.4,10,10,10c5.6,0,10-4.4,10-10c0-8.1,6.8-14.9,14.9-14.9c8.1,0,14.9,6.8,14.9,14.9v14.9
		c0,5.6,4.4,10,10,10c5.6,0,10-4.4,10-10c0-8.1,6.8-14.9,14.9-14.9c8.1,0,14.9,6.8,14.9,14.9V280v3.1v5
		C299,340.4,256.1,381.4,203.2,381.4L203.2,381.4z"/>
	<path class="st0" d="M82.4,38.6H33.3l11.2-11.2c3.7-3.7,3.7-10,0-13.7c-3.7-3.7-10-3.7-13.7,0l-28,28c-1.2,1.2-1.9,1.9-1.9,3.1
		c-1.2,2.5-1.2,5,0,7.5c0.6,1.2,1.2,2.5,1.9,3.1l28,28c1.9,1.9,4.4,3.1,6.8,3.1s5-1.2,6.8-3.1c3.7-3.7,3.7-10,0-13.7L33.3,58.5h49.2
		c5.6,0,10-4.4,10-10C92.4,42.9,88,38.6,82.4,38.6L82.4,38.6z"/>
	<path class="st0" d="M279.1,44.8c-0.6-1.2-1.2-2.5-1.9-3.1C277.8,42.3,278.5,43.6,279.1,44.8z"/>
	<path class="st0" d="M276.6,55.4c0.6-0.6,1.9-1.9,1.9-3.1C278.5,53.5,277.8,54.1,276.6,55.4z"/>
	<path class="st0" d="M279.1,44.8c-0.6-1.2-1.2-2.5-1.9-3.1l-28-28c-3.7-3.7-10-3.7-13.7,0c-3.7,3.7-3.7,10,0,13.7l11.2,11.2h-49.2
		c-5.6,0-10,4.4-10,10c0,5.6,4.4,10,10,10h48.5l-11.2,11.2c-3.7,3.7-3.7,10,0,13.7c1.9,1.9,4.4,3.1,6.8,3.1s5-1.2,6.8-3.1l28-28
		c1.2-1.2,1.9-1.9,1.9-3.1C279.7,49.8,279.7,47.3,279.1,44.8L279.1,44.8z"/>
</g>
</svg>
